<?xml version="1.0" standalone="no"?>
<!DOCTYPE svg PUBLIC "-//W3C//DTD SVG 20010904//EN"
 "http://www.w3.org/TR/2001/REC-SVG-20010904/DTD/svg10.dtd">
<svg version="1.0" xmlns="http://www.w3.org/2000/svg"
 width="1280.000000pt" height="1273.000000pt" viewBox="0 0 1280.000000 1273.000000"
 preserveAspectRatio="xMidYMid meet">
<g transform="translate(0.000000,1273.000000) scale(0.100000,-0.100000)"
fill="#000000" stroke="none">
<path d="M8315 12691 c-74 -21 -138 -51 -198 -94 -26 -19 -1826 -1782 -3999
-3920 -2767 -2721 -3966 -3905 -3996 -3950 -65 -96 -95 -191 -100 -318 -5
-126 11 -199 66 -309 46 -94 -102 61 2069 -2147 1188 -1207 1783 -1804 1823
-1832 115 -76 225 -105 374 -99 124 6 209 33 306 97 96 64 7956 7792 8018
7884 65 96 95 191 100 318 5 126 -11 199 -66 309 -30 60 -64 103 -172 215
-442 459 -3665 3726 -3703 3753 -59 42 -136 77 -212 97 -79 20 -232 19 -310
-4z m266 -367 c123 -37 165 -67 361 -263 530 -529 3352 -3408 3379 -3447 118
-173 122 -417 8 -594 -28 -43 -2588 -2566 -7344 -7240 -233 -229 -313 -302
-360 -327 -164 -86 -337 -89 -505 -9 -54 25 -95 61 -247 211 -491 486 -3370
3425 -3399 3470 -54 81 -77 156 -82 272 -5 120 14 200 74 300 30 50 739 752
3771 3735 2053 2020 3771 3707 3816 3748 92 83 157 122 238 144 74 20 222 20
290 0z"/>
<path d="M8617 9607 c-241 -238 -438 -437 -437 -442 0 -6 47 -57 105 -115
l105 -104 153 152 c84 84 158 152 163 152 5 1 197 -189 426 -422 l417 -423
123 120 c68 66 123 125 123 132 0 7 -183 199 -407 427 -225 228 -408 420 -408
428 0 7 69 81 152 165 l153 153 -105 105 c-58 58 -109 105 -115 105 -5 -1
-207 -195 -448 -433z"/>
<path d="M7377 8387 l-359 -352 526 -535 c289 -294 529 -536 533 -537 5 -2 64
53 132 121 l124 125 -204 211 c-112 117 -204 218 -204 226 0 8 90 105 200 214
l200 200 -105 105 c-57 58 -108 105 -112 105 -4 0 -97 -88 -206 -195 -110
-107 -206 -195 -214 -195 -16 0 -188 173 -188 188 0 5 104 112 231 237 l232
227 -104 104 c-57 57 -108 104 -114 104 -5 -1 -171 -159 -368 -353z"/>
<path d="M5988 7022 l-119 -118 42 -119 c63 -180 205 -534 312 -775 110 -248
264 -581 275 -592 4 -4 66 51 137 122 l129 129 -67 141 c-37 78 -67 149 -67
159 0 11 81 97 196 207 l196 188 148 -74 148 -74 59 51 c104 92 218 212 208
221 -17 15 -446 218 -710 337 -222 100 -495 213 -699 289 l-69 26 -119 -118z
m500 -387 c103 -47 203 -95 221 -106 l34 -21 -124 -124 c-68 -68 -129 -124
-136 -124 -7 0 -19 12 -27 28 -18 36 -186 420 -186 427 0 15 49 -3 218 -80z"/>
<path d="M4940 5833 c-84 -14 -233 -83 -314 -145 -133 -103 -297 -274 -402
-417 l-45 -62 517 -524 c285 -289 522 -525 528 -525 6 0 66 55 133 122 l123
123 -185 185 c-102 103 -185 191 -185 196 0 5 22 32 50 59 l49 48 118 -22 c65
-13 199 -45 297 -72 98 -27 186 -49 195 -49 9 0 79 63 155 139 l139 139 -139
45 c-129 42 -393 108 -492 123 -23 4 -45 10 -48 15 -3 5 3 45 12 90 32 147 -7
269 -124 387 -116 116 -250 167 -382 145z m63 -364 c32 -17 77 -60 93 -91 22
-41 17 -102 -11 -159 -26 -51 -169 -209 -189 -209 -14 0 -256 241 -256 255 0
14 75 93 131 138 85 68 177 94 232 66z"/>
<path d="M3484 4395 c-151 -33 -316 -130 -470 -277 -88 -85 -219 -230 -293
-326 l-33 -43 53 -57 c30 -31 261 -268 515 -526 l462 -469 54 39 c87 63 227
184 309 266 138 139 230 281 280 433 20 58 24 91 23 190 0 105 -3 130 -28 200
-33 97 -74 169 -136 244 -225 270 -479 382 -736 326z m219 -373 c116 -54 250
-188 298 -299 72 -166 34 -313 -124 -479 -47 -50 -87 -84 -96 -82 -23 4 -631
621 -631 640 0 21 149 161 208 196 122 71 230 78 345 24z"/>
</g>
</svg>
